<?xml version="1.0" encoding="UTF-8"?>
<svg width="194px" height="35px" viewBox="0 0 194 35" version="1.1" xmlns="http://www.w3.org/2000/svg" xmlns:xlink="http://www.w3.org/1999/xlink">
    <defs>
        <polygon id="path-1" points="0.931500105 0 12.4040987 0 12.4040987 17.1042131 0.931500105 17.1042131"></polygon>
    </defs>
    <g id="Styleguide" stroke="none" stroke-width="1" fill="none" fill-rule="evenodd">
        <g id="StyleGuide" transform="translate(-1202.000000, -3153.000000)">
            <g id="logo_full" transform="translate(1202.000000, 3153.000000)">
                <path d="M46.3447676,19.5000435 C46.4351479,22.1210233 48.5034436,23.2534412 50.8459545,23.2534412 C52.5514991,23.2534412 53.7534962,22.9842203 54.8909358,22.598498 L55.4307585,25.0969401 C54.1746563,25.6329673 52.4322217,26.0186896 50.3331844,26.0186896 C45.5940574,26.0186896 42.8051783,23.1321107 42.8051783,18.6960027 C42.8051783,14.6800241 45.265737,10.8994629 49.9446104,10.8994629 C54.6818929,10.8994629 56.2429519,14.7699656 56.2429519,17.9547399 C56.2429519,18.6374502 56.1802391,19.1722701 56.1199855,19.5000435 L46.3447676,19.5000435 Z M52.7623866,16.9418416 C52.7918985,15.6041882 52.1905926,13.4009232 49.7337229,13.4009232 C47.4551546,13.4009232 46.4954015,15.4514687 46.3447676,16.9418416 L52.7623866,16.9418416 Z" id="Fill-1" fill="#ffffff"></path>
                <path d="M72.6689857,21.5696948 C72.6689857,23.2143632 72.725368,24.5745764 72.7817502,25.7060762 L69.7785315,25.7060762 L69.6088094,23.6401841 L69.525962,23.6401841 C68.9333729,24.60216 67.5911297,26.0186896 65.1195152,26.0186896 C62.6507774,26.0186896 60.3776515,24.519984 60.3776515,20.0123742 L60.3776515,11.9074114 L63.8267504,11.9074114 L63.8267504,19.4141563 C63.8267504,21.7116351 64.5574185,23.1856304 66.3835136,23.1856304 C67.7850157,23.1856304 68.6854059,22.2225052 69.0173709,21.3168457 C69.1635046,21.0312412 69.2129829,20.6335785 69.2129829,20.2376398 L69.2129829,11.9074114 L72.6689857,11.9074114 L72.6689857,21.5696948" id="Fill-2" fill="#ffffff"></path>
                <path d="M79.0916931,15.5271976 C79.0916931,14.2644408 79.0629215,13.3141668 78.9837996,12.2193112 L80.196633,12.2193112 L80.2812879,14.6941046 L80.3327448,14.6941046 C81.035989,13.1398527 82.6820562,11.9074114 84.7857025,11.9074114 C86.0284141,11.9074114 89.3205485,12.5638584 89.3205485,17.7384795 L89.3205485,26.0186896 L88.02638,26.0186896 L88.02638,17.8556606 C88.02638,15.325483 87.1062423,13.0553191 84.434357,13.0553191 C82.6239597,13.0553191 81.0608875,14.432925 80.5479784,16.2471906 C80.46775,16.5602563 80.3869682,17.0237335 80.3869682,17.4545633 L80.3869682,26.0186896 L79.0916931,26.0186896 L79.0916931,15.5271976" id="Fill-3" fill="#ffffff"></path>
                <path d="M95.8192707,18.8347765 C95.8192707,23.1463814 98.1867111,24.8633669 100.980441,24.8633669 C102.953983,24.8633669 103.969096,24.4691173 104.732022,24.1034365 L105.072128,25.1456267 C104.56139,25.4307435 103.179564,26.0186896 100.808653,26.0186896 C96.9170967,26.0186896 94.488923,23.2023763 94.488923,19.2307402 C94.488923,14.7220106 97.0877283,11.9074114 100.584229,11.9074114 C105.011973,11.9074114 105.859347,16.0727439 105.859347,18.0194227 C105.859347,18.3845321 105.859347,18.5816569 105.806711,18.8347765 L95.8192707,18.8347765 Z M104.449178,17.7668744 C104.475785,15.8773333 103.689723,13.0324511 100.418803,13.0324511 C97.4255209,13.0324511 96.1570633,15.6796371 95.9019836,17.7668744 L104.449178,17.7668744 Z" id="Fill-4" fill="#ffffff"></path>
                <path d="M112.970144,8.88356606 L112.970144,11.9297066 L117.229771,11.9297066 L117.229771,13.053933 L112.970144,13.053933 L112.970144,22.0209217 C112.970144,23.7784002 113.560998,24.8705558 115.146168,24.8705558 C115.923137,24.8705558 116.485308,24.7848394 116.855627,24.6688015 L117.043655,25.704396 C116.545859,25.8781613 115.865135,26.0186896 114.961964,26.0186896 C113.873315,26.0186896 112.970144,25.704396 112.411797,25.071144 C111.729798,24.3521755 111.481219,23.1743034 111.481219,21.7637724 L111.481219,13.053933 L108.960371,13.053933 L108.960371,11.9297066 L111.481219,11.9297066 L111.481219,9.4013633 L112.970144,8.88356606" id="Fill-5" fill="#ffffff"></path>
                <path d="M121.744238,11.9074114 L124.083424,19.9348031 C124.54334,21.5802246 124.946505,22.9919486 125.261589,24.3452482 L125.321887,24.3452482 C125.668892,23.0491806 126.158957,21.5498201 126.706954,19.9348031 L129.474725,11.9074114 L130.772302,11.9074114 L133.424799,19.8435895 C133.999989,21.5802246 134.433894,23.0211608 134.7809,24.3452482 L134.838242,24.3452482 C135.126724,23.0211608 135.557673,21.6070521 136.10567,19.9038024 L138.558949,11.9074114 L139.970618,11.9074114 L135.357864,26.0186896 L134.173788,26.0186896 L131.549075,18.1409359 C130.974476,16.4353015 130.485003,14.9377294 130.107848,13.3483476 L130.049915,13.3483476 C129.64675,14.9949614 129.127719,16.5527464 128.550756,18.1999564 L125.81136,26.0186896 L124.604229,26.0186896 L120.330795,11.9074114 L121.744238,11.9074114" id="Fill-6" fill="#ffffff"></path>
                <path d="M149.639031,26.0186896 C145.940017,26.0186896 143.071643,23.2909691 143.071643,19.0722391 C143.071643,14.463509 146.298104,11.9074114 149.851435,11.9074114 C153.818556,11.9074114 156.509417,14.7160968 156.509417,18.8493004 C156.509417,23.8537325 152.836723,26.0186896 149.670249,26.0186896 L149.639031,26.0186896 Z M149.729012,24.8914522 C152.71736,24.8914522 155.07523,22.3621529 155.07523,18.9057478 C155.07523,16.430045 153.611049,13.0300873 149.818993,13.0300873 C146.14936,13.0300873 144.50583,16.0930711 144.50583,18.9895637 C144.50583,22.3621529 146.77433,24.8914522 149.699018,24.8914522 L149.729012,24.8914522 Z" id="Fill-7" fill="#ffffff"></path>
                <path d="M161.798816,16.3608737 C161.798816,14.9797698 161.770266,13.5730144 161.677791,12.2193112 L163.008442,12.2193112 L163.066161,15.0089193 L163.164222,15.0089193 C163.798516,13.2547018 165.308531,11.9074114 167.27782,11.9074114 C167.487596,11.9074114 167.697993,11.9348119 167.87984,11.9610465 L167.87984,13.2547018 C167.670064,13.2284672 167.460288,13.2284672 167.185966,13.2284672 C165.186265,13.2284672 163.768104,14.8649208 163.372757,17.0802836 C163.283385,17.4807979 163.248009,17.9431091 163.248009,18.4013394 L163.248009,26.0186896 L161.798816,26.0186896 L161.798816,16.3608737" id="Fill-8" fill="#ffffff"></path>
                <path d="M173.426704,18.9597438 L173.485871,18.9597438 C173.838459,18.5324692 174.398132,17.9108219 174.83766,17.4536437 L179.848155,12.4057068 L181.554343,12.4057068 L175.840483,18.0517133 L182.351289,26.0186896 L180.639063,26.0186896 L174.869055,18.8723337 L173.426704,20.3485303 L173.426704,26.0186896 L172.01454,26.0186896 L172.01454,5.85972073 L173.426704,5.85972073 L173.426704,18.9597438" id="Fill-9" fill="#ffffff"></path>
                <g id="Group-7" transform="translate(183.384964, 8.883566)">
                    <path d="M2.42789011,15.1053838 C3.13478501,15.5443817 4.19624233,16.0100527 5.36362239,16.0100527 C7.42967324,16.0100527 8.40750735,14.8847736 8.40750735,13.5161006 C8.40750735,12.0624066 7.5394984,11.2983282 5.66466595,10.5281371 C3.51499188,9.70848927 2.34538187,8.52819643 2.34538187,6.93946891 C2.34538187,5.02177089 3.84000744,3.38025251 6.36710095,3.38025251 C7.56848778,3.38025251 8.59928325,3.73311783 9.25042934,4.19990031 L8.76485721,5.26905447 C8.30102712,4.93897257 7.45699016,4.47441287 6.15246803,4.47441287 C4.49171102,4.47441287 3.62481704,5.54189994 3.62481704,6.74886607 C3.62481704,8.1164276 4.5485748,8.69268168 6.31748451,9.43175394 C8.43538175,10.2814092 9.6875,11.3527861 9.6875,13.3516154 C9.6875,15.5971725 7.9464647,17.1042131 5.28278661,17.1042131 C4.03122585,17.1042131 2.83206898,16.7502364 1.965175,16.2000999 L2.42789011,15.1053838" id="Fill-10" fill="#ffffff" mask="url(#mask-2)"></path>
                </g>
                <path d="M29.5643995,4.30905434 C29.7339615,4.49408494 29.8982794,4.68145771 30.0561877,4.87702803 C30.4902899,5.63354556 31.3019736,7.04879546 28.500412,8.46111766 C23.944961,10.7581906 18.8674219,11.3126969 14.1004553,12.9159051 C17.3559305,25.3006592 19.1476946,32.1239555 13.8219307,33.6457736 C11.3571625,34.1628054 9.89986099,33.0918529 8.28465118,32.3675401 C8.15704261,32.3054729 8.4239135,32.4331205 8.28465118,32.3675401 C15.040913,36.5916248 24.0073086,35.7338089 29.8615701,29.7823815 C36.71281,22.8302664 36.71281,11.5510116 29.8615701,4.59362672 C29.7636786,4.49701264 29.6646217,4.40508288 29.5643995,4.30905434 M26.5693856,2.93889101 C22.8594141,0.450932038 18.4251621,-0.457825863 14.1872758,0.214373924 C11.9351885,1.10263793 11.5989778,3.24454283 11.8897389,6.1172015 C15.0583936,5.32379496 16.8682211,4.98886615 21.571092,4.33716025 C25.1802585,3.83886581 26.9463844,3.55956329 26.5693856,2.93889101 M5.01227806,8.84640291 C4.88816562,6.24894798 5.51572008,4.59713996 6.28836373,3.50745024 C5.87815172,3.85701755 5.47609733,4.2247366 5.09094087,4.6152917 C1.98754714,7.76959506 0.290178386,11.8098203 0,15.938462 C0.55238777,13.2584459 2.16468414,11.0322233 5.01227806,8.84640291 M8.71642263,30.5441689 C4.8467948,28.519372 -3.28460956,21.4870379 6.5558173,15.0742051 C11.072811,27.6902475 13.0527832,31.9863536 8.71642263,30.5441689" id="Fill-12" fill="#ffffff"></path>
            </g>
        </g>
    </g>
</svg>
